<?xml version="1.0" encoding="UTF-8" standalone="no"?>
<!-- Created with Inkscape (http://www.inkscape.org/) -->

<svg
   xmlns:dc="http://purl.org/dc/elements/1.1/"
   xmlns:cc="http://creativecommons.org/ns#"
   xmlns:rdf="http://www.w3.org/1999/02/22-rdf-syntax-ns#"
   xmlns:svg="http://www.w3.org/2000/svg"
   xmlns="http://www.w3.org/2000/svg"
   xmlns:xlink="http://www.w3.org/1999/xlink"
   xmlns:sodipodi="http://sodipodi.sourceforge.net/DTD/sodipodi-0.dtd"
   xmlns:inkscape="http://www.inkscape.org/namespaces/inkscape"
   width="63.999756"
   height="63.999756"
   id="svg2"
   version="1.1"
   inkscape:version="0.48.3.1 r9886"
   sodipodi:docname="defisheye.svg">
  <defs
     id="defs4">
    <linearGradient
       id="linearGradient5588">
      <stop
         style="stop-color:#ffffff;stop-opacity:0.78431374;"
         offset="0"
         id="stop5590" />
      <stop
         style="stop-color:#000000;stop-opacity:0;"
         offset="1"
         id="stop5592" />
    </linearGradient>
    <linearGradient
       inkscape:collect="always"
       id="linearGradient5577">
      <stop
         style="stop-color:#000000;stop-opacity:1;"
         offset="0"
         id="stop5579" />
      <stop
         style="stop-color:#000000;stop-opacity:0;"
         offset="1"
         id="stop5581" />
    </linearGradient>
    <radialGradient
       inkscape:collect="always"
       xlink:href="#linearGradient5577"
       id="radialGradient5583"
       cx="245.93346"
       cy="249.51604"
       fx="245.93346"
       fy="249.51604"
       r="20"
       gradientUnits="userSpaceOnUse"
       gradientTransform="matrix(4.2499989,-0.7500009,0.66460224,3.7660735,-961.04583,-502.88323)" />
    <radialGradient
       inkscape:collect="always"
       xlink:href="#linearGradient5588"
       id="radialGradient5594"
       cx="238.25743"
       cy="234.13869"
       fx="238.25743"
       fy="234.13869"
       r="55"
       gradientUnits="userSpaceOnUse"
       gradientTransform="matrix(5.2727283,-2.363638,1.3147562,2.9329162,-1344.1019,98.807307)" />
    <radialGradient
       inkscape:collect="always"
       xlink:href="#linearGradient5577"
       id="radialGradient5609"
       gradientUnits="userSpaceOnUse"
       gradientTransform="matrix(4.2499989,-0.7500009,0.66460224,3.7660735,-961.04583,-502.88323)"
       cx="245.93346"
       cy="249.51604"
       fx="245.93346"
       fy="249.51604"
       r="20" />
    <radialGradient
       inkscape:collect="always"
       xlink:href="#linearGradient5577"
       id="radialGradient5612"
       gradientUnits="userSpaceOnUse"
       gradientTransform="matrix(7.9687479,-1.4062517,1.2461292,7.0613878,-2016.3359,-1161.848)"
       cx="245.93346"
       cy="249.51604"
       fx="245.93346"
       fy="249.51604"
       r="20" />
    <radialGradient
       inkscape:collect="always"
       xlink:href="#linearGradient5577"
       id="radialGradient5615"
       gradientUnits="userSpaceOnUse"
       gradientTransform="matrix(7.9687479,-1.4062517,1.2461292,7.0613878,-2016.3359,-1161.8608)"
       cx="245.93346"
       cy="249.51604"
       fx="245.93346"
       fy="249.51604"
       r="20" />
    <radialGradient
       inkscape:collect="always"
       xlink:href="#linearGradient5588"
       id="radialGradient5621"
       gradientUnits="userSpaceOnUse"
       gradientTransform="matrix(5.2727283,-2.363638,1.3147562,2.9329162,-1344.1019,98.807307)"
       cx="238.25743"
       cy="234.13869"
       fx="238.25743"
       fy="234.13869"
       r="55" />
    <radialGradient
       inkscape:collect="always"
       xlink:href="#linearGradient5577"
       id="radialGradient5623"
       gradientUnits="userSpaceOnUse"
       gradientTransform="matrix(7.9687479,-1.4062517,1.2461292,7.0613878,-2016.3359,-1161.8608)"
       cx="245.93346"
       cy="249.51604"
       fx="245.93346"
       fy="249.51604"
       r="20" />
    <filter
       id="filter5625"
       inkscape:label="Drop Shadow"
       color-interpolation-filters="sRGB">
      <feFlood
         id="feFlood5627"
         flood-opacity="0.5"
         flood-color="rgb(0,0,0)"
         result="flood" />
      <feComposite
         id="feComposite5629"
         in2="SourceGraphic"
         in="flood"
         operator="in"
         result="composite1" />
      <feGaussianBlur
         id="feGaussianBlur5631"
         stdDeviation="2"
         result="blur" />
      <feOffset
         id="feOffset5633"
         dx="4"
         dy="4"
         result="offset" />
      <feComposite
         id="feComposite5635"
         in2="offset"
         in="SourceGraphic"
         operator="over"
         result="fbSourceGraphic" />
      <feColorMatrix
         result="fbSourceGraphicAlpha"
         in="fbSourceGraphic"
         values="0 0 0 -1 0 0 0 0 -1 0 0 0 0 -1 0 0 0 0 1 0"
         id="feColorMatrix5649" />
      <feFlood
         id="feFlood5651"
         flood-opacity="0.5"
         flood-color="rgb(0,0,0)"
         result="flood"
         in="fbSourceGraphic" />
      <feComposite
         id="feComposite5653"
         in2="fbSourceGraphic"
         in="flood"
         operator="in"
         result="composite1" />
      <feGaussianBlur
         id="feGaussianBlur5655"
         stdDeviation="2"
         result="blur" />
      <feOffset
         id="feOffset5657"
         dx="4"
         dy="4"
         result="offset" />
      <feComposite
         id="feComposite5659"
         in2="offset"
         in="fbSourceGraphic"
         operator="over"
         result="composite2" />
    </filter>
    <filter
       id="filter5637"
       inkscape:label="Drop Shadow"
       color-interpolation-filters="sRGB">
      <feFlood
         id="feFlood5639"
         flood-opacity="0.5"
         flood-color="rgb(0,0,0)"
         result="flood" />
      <feComposite
         id="feComposite5641"
         in2="SourceGraphic"
         in="flood"
         operator="in"
         result="composite1" />
      <feGaussianBlur
         id="feGaussianBlur5643"
         stdDeviation="2"
         result="blur" />
      <feOffset
         id="feOffset5645"
         dx="4"
         dy="4"
         result="offset" />
      <feComposite
         id="feComposite5647"
         in2="offset"
         in="SourceGraphic"
         operator="over"
         result="fbSourceGraphic" />
      <feColorMatrix
         result="fbSourceGraphicAlpha"
         in="fbSourceGraphic"
         values="0 0 0 -1 0 0 0 0 -1 0 0 0 0 -1 0 0 0 0 1 0"
         id="feColorMatrix5661" />
      <feFlood
         id="feFlood5663"
         flood-opacity="0.5"
         flood-color="rgb(0,0,0)"
         result="flood"
         in="fbSourceGraphic" />
      <feComposite
         id="feComposite5665"
         in2="fbSourceGraphic"
         in="flood"
         operator="in"
         result="composite1" />
      <feGaussianBlur
         id="feGaussianBlur5667"
         stdDeviation="2"
         result="blur" />
      <feOffset
         id="feOffset5669"
         dx="4"
         dy="4"
         result="offset" />
      <feComposite
         id="feComposite5671"
         in2="offset"
         in="fbSourceGraphic"
         operator="over"
         result="composite2" />
    </filter>
    <filter
       color-interpolation-filters="sRGB"
       id="filter5625-4"
       inkscape:label="Drop Shadow">
      <feFlood
         id="feFlood5627-4"
         flood-opacity="0.5"
         flood-color="rgb(0,0,0)"
         result="flood" />
      <feComposite
         id="feComposite5629-3"
         in2="SourceGraphic"
         in="flood"
         operator="in"
         result="composite1" />
      <feGaussianBlur
         id="feGaussianBlur5631-4"
         stdDeviation="2"
         result="blur" />
      <feOffset
         id="feOffset5633-4"
         dx="4"
         dy="4"
         result="offset" />
      <feComposite
         id="feComposite5635-3"
         in2="offset"
         in="SourceGraphic"
         operator="over"
         result="fbSourceGraphic" />
      <feColorMatrix
         result="fbSourceGraphicAlpha"
         in="fbSourceGraphic"
         values="0 0 0 -1 0 0 0 0 -1 0 0 0 0 -1 0 0 0 0 1 0"
         id="feColorMatrix5649-4" />
      <feFlood
         id="feFlood5651-9"
         flood-opacity="0.5"
         flood-color="rgb(0,0,0)"
         result="flood"
         in="fbSourceGraphic" />
      <feComposite
         id="feComposite5653-4"
         in2="fbSourceGraphic"
         in="flood"
         operator="in"
         result="composite1" />
      <feGaussianBlur
         id="feGaussianBlur5655-6"
         stdDeviation="2"
         result="blur" />
      <feOffset
         id="feOffset5657-3"
         dx="4"
         dy="4"
         result="offset" />
      <feComposite
         id="feComposite5659-6"
         in2="offset"
         in="fbSourceGraphic"
         operator="over"
         result="composite2" />
    </filter>
  </defs>
  <sodipodi:namedview
     id="base"
     pagecolor="#ffffff"
     bordercolor="#666666"
     borderopacity="1.0"
     inkscape:pageopacity="0.0"
     inkscape:pageshadow="2"
     inkscape:zoom="3.4442425"
     inkscape:cx="85.409763"
     inkscape:cy="74.176858"
     inkscape:document-units="px"
     inkscape:current-layer="layer1"
     showgrid="false"
     inkscape:window-width="1855"
     inkscape:window-height="1056"
     inkscape:window-x="65"
     inkscape:window-y="24"
     inkscape:window-maximized="1"
     fit-margin-top="0"
     fit-margin-left="0"
     fit-margin-right="0"
     fit-margin-bottom="0">
    <inkscape:grid
       type="xygrid"
       id="grid2985"
       empspacing="5"
       visible="true"
       enabled="true"
       snapvisiblegridlinesonly="true"
       originx="-752.24523px"
       originy="-1665.76px" />
  </sodipodi:namedview>
  <metadata
     id="metadata7">
    <rdf:RDF>
      <cc:Work
         rdf:about="">
        <dc:format>image/svg+xml</dc:format>
        <dc:type
           rdf:resource="http://purl.org/dc/dcmitype/StillImage" />
        <dc:title></dc:title>
      </cc:Work>
    </rdf:RDF>
  </metadata>
  <g
     inkscape:label="Layer 1"
     inkscape:groupmode="layer"
     id="layer1"
     transform="translate(-377.84064,-153.7601)">
    <path
       sodipodi:type="arc"
       style="fill:none;stroke:#ff0000;stroke-width:5.00052309;stroke-miterlimit:4;stroke-opacity:1;stroke-dasharray:none;filter:url(#filter5625)"
       id="path4774-9"
       sodipodi:cx="502.5"
       sodipodi:cy="119.86218"
       sodipodi:rx="52.5"
       sodipodi:ry="52.5"
       d="m 555,119.86218 c 0,28.99495 -23.50505,52.5 -52.5,52.5 -28.99495,0 -52.5,-23.50505 -52.5,-52.5 0,-28.994947 23.50505,-52.499997 52.5,-52.499997 28.99495,0 52.5,23.50505 52.5,52.499997 z"
       transform="matrix(0.52639717,0,0,0.52639717,145.32594,122.65812)"
       inkscape:export-filename="/home/lucid/Desktop/defisheye.png"
       inkscape:export-xdpi="44.630001"
       inkscape:export-ydpi="44.630001" />
    <path
       sodipodi:type="arc"
       style="fill:#ffffff;fill-opacity:1;stroke:none"
       id="path4774-9-8-5"
       sodipodi:cx="502.5"
       sodipodi:cy="119.86218"
       sodipodi:rx="52.5"
       sodipodi:ry="52.5"
       d="m 555,119.86218 c 0,28.99495 -23.50505,52.5 -52.5,52.5 -28.99495,0 -52.5,-23.50505 -52.5,-52.5 0,-28.994947 23.50505,-52.499997 52.5,-52.499997 28.99495,0 52.5,23.50505 52.5,52.499997 z"
       transform="matrix(0.52639717,0,0,0.52639717,145.32594,122.65812)"
       inkscape:export-filename="/home/lucid/Desktop/defisheye.png"
       inkscape:export-xdpi="44.630001"
       inkscape:export-ydpi="44.630001" />
    <path
       style="fill:#000000"
       d="m 415.16674,158.62862 c 0.0997,0.74628 0.19685,1.50814 0.28789,2.09756 0.22147,1.43362 0.32369,2.67875 0.23308,2.76936 -0.36424,0.36424 -12.96938,0.33736 -12.96938,-0.0274 0,-0.34903 0.33698,-2.39393 0.72661,-4.60646 -0.23854,0.0566 -0.47678,0.11547 -0.71289,0.17823 -0.0683,0.68644 -0.16167,1.45531 -0.24679,2.16614 l -0.31532,2.64596 -5.47016,1.00081 c -3.01397,0.54695 -5.54303,0.92381 -5.60727,0.85001 -0.0144,-0.0167 -0.007,-0.11536 0.0274,-0.2742 -0.51242,0.47262 -1.0052,0.97089 -1.48064,1.48066 0.14927,-0.0319 0.25846,-0.0425 0.27419,-0.0274 0.0739,0.0708 -0.32522,2.61923 -0.87742,5.66208 l -1.00081,5.53874 -1.39839,0 c -0.8538,0 -2.25835,0.22176 -3.48227,0.49353 -0.0599,0.22335 -0.12386,0.44624 -0.17822,0.67179 0.24999,-0.0414 0.49655,-0.071 0.76774,-0.12339 4.74982,-0.91938 4.34096,-1.48391 4.22258,5.7992 -0.0572,3.52278 -0.17232,6.47878 -0.26047,6.56695 -0.0882,0.0882 -1.48477,-0.0504 -3.09839,-0.30162 -0.66054,-0.10287 -1.31575,-0.1783 -1.90565,-0.23308 0.0358,0.1877 0.0702,0.37579 0.1097,0.56211 0.20102,0.0377 0.37995,0.0723 0.60325,0.10972 4.9018,0.82252 4.67382,0.67038 4.9629,3.23549 0.14212,1.26104 0.54553,3.73452 0.89113,5.48388 0.4991,2.52636 0.6838,3.32933 -0.64434,3.09839 0.26499,0.31725 0.54382,0.62729 0.82257,0.93225 0.27295,0.12727 0.47897,0.24018 0.53468,0.30162 0.062,0.0683 0.16098,0.28003 0.27419,0.5484 0.27302,0.27454 0.55199,0.54591 0.83629,0.80887 -0.37284,-1.43212 -0.11767,-1.57153 0.76774,-1.24759 0.5429,0.19863 2.86259,0.60564 5.15485,0.91856 2.29225,0.3129 4.39253,0.75103 4.6613,0.95967 0.36173,0.28082 0.74964,2.46615 1.05565,5.78549 9.9e-4,3.4e-4 -9.9e-4,0.0134 0,0.0136 0.24438,0.065 0.49333,0.11986 0.74031,0.17822 l -0.16451,-0.78146 c -0.27836,-1.32709 -0.52513,-3.05451 -0.54839,-3.83871 l -0.041,-1.42581 6.58065,0 c 5.47513,0 6.58066,0.0981 6.58066,0.63065 0,0.35209 -0.22295,2.12887 -0.49355,3.94839 l -0.24678,1.70001 c 0.22455,-0.0436 0.4492,-0.0881 0.67178,-0.1371 0.14795,-0.77043 0.34169,-1.84533 0.52097,-2.96131 0.28101,-1.74935 0.63598,-3.19582 0.79516,-3.20805 0.15917,-0.0123 2.65693,-0.38195 5.55243,-0.82258 2.89548,-0.44064 5.30999,-0.7675 5.36048,-0.72662 0.0858,0.0695 -0.0706,0.80196 -0.35645,1.83709 0.23892,-0.20212 0.46735,-0.42065 0.69919,-0.63063 l 0.47983,-1.50807 1.5218,-0.49356 c 0.21391,-0.23751 0.42492,-0.48173 0.63065,-0.7266 -1.77092,0.49034 -1.95384,0.29144 -1.78227,-0.52098 0.11594,-0.54903 0.42506,-2.46774 0.68547,-4.27742 0.97655,-6.78611 0.48554,-6.0019 4.07179,-6.56694 1.04508,-0.16467 2.08336,-0.37916 2.87903,-0.57581 0.038,-0.17753 0.075,-0.35589 0.10973,-0.53468 -0.82955,0.0892 -1.95375,0.21783 -3.87986,0.46614 l -2.30323,0.30161 0,-6.70404 0,-6.69034 2.30323,0.2742 c 1.11712,0.13583 2.56517,0.31664 3.57823,0.43872 -0.0442,-0.17915 -0.0895,-0.35694 -0.1371,-0.5347 -0.97123,-0.25472 -2.2597,-0.45104 -3.16692,-0.46611 -1.1166,-0.0185 -2.21813,-0.2742 -2.45406,-0.57582 -0.23589,-0.30161 -0.68788,-2.42386 -1.00081,-4.71613 -0.3129,-2.29226 -0.73363,-4.61194 -0.93224,-5.15485 -0.25006,-0.68344 -0.19396,-0.98942 0.17822,-0.98709 0.11006,6.9e-4 0.41488,0.0621 0.8226,0.16451 -0.30714,-0.32698 -0.62343,-0.64795 -0.94597,-0.95968 -0.0645,-0.0335 -0.11238,-0.0599 -0.13711,-0.0823 -0.0445,-0.0401 -0.0963,-0.1067 -0.15081,-0.19194 -0.37633,-0.35344 -0.75596,-0.70977 -1.15161,-1.04194 0.10275,0.52127 0.14093,0.89917 0.0686,0.95967 -0.0914,0.0763 -1.94129,-0.21149 -4.11292,-0.64434 -2.1716,-0.43285 -4.57883,-0.79423 -5.34677,-0.80887 -1.54772,-0.0295 -1.62913,-0.0417 -2.39919,-5.30565 -0.214,-0.0472 -0.42854,-0.095 -0.64435,-0.13709 z m -5.19597,5.60725 c 1.18049,-8e-5 2.30077,0.0239 3.07096,0.096 3.30268,0.30841 3.15306,0.006 3.35887,7.33469 l 0.13709,4.78469 -7.40322,0.0823 -7.40323,0.0823 0.2879,-4.41452 c 0.16354,-2.43512 0.41339,-5.14776 0.54837,-6.01856 l 0.2468,-1.57661 3.71532,-0.26048 c 1.02092,-0.0721 2.26063,-0.1096 3.44114,-0.10972 z m 7.08791,0.32903 c 0.95826,-0.0366 7.49387,0.90125 10.10404,1.46694 0.69055,0.14966 1.07781,0.6844 1.35726,1.85081 0.50838,2.12196 1.39838,7.76276 1.39838,8.88387 0,0.56047 -0.27274,0.85127 -0.76773,0.80887 -0.42227,-0.0361 -3.23549,-0.28292 -6.25163,-0.54837 l -5.48388,-0.47985 -0.34273,-5.88146 c -0.18862,-3.22966 -0.25376,-5.97043 -0.1371,-6.08711 0.0115,-0.0115 0.0595,-0.0112 0.12339,-0.0136 z m -15.86212,0.0686 c 0.30416,-0.0215 0.49142,-0.0158 0.53468,0.0275 0.0892,0.0892 -0.0451,2.40247 -0.30162,5.14114 -0.25653,2.73867 -0.46525,5.39714 -0.46613,5.90887 -9.9e-4,0.84924 -0.31593,0.96806 -3.61935,1.23389 -1.99067,0.16017 -4.78269,0.40192 -6.19679,0.54837 l -2.56372,0.2742 0.26049,-1.27501 c 0.14432,-0.69772 0.56309,-3.04243 0.93226,-5.20968 0.36916,-2.16722 0.91893,-4.18182 1.22016,-4.48306 0.45263,-0.45261 8.07079,-2.01572 10.20002,-2.16615 z m 9.84355,12.66778 c 1.19568,0.002 2.20284,0.0324 2.79679,0.0959 l 2.92016,0.31532 0,7.41696 0,7.43063 -7.41694,0 -7.43066,0 -0.31533,-2.92016 c -0.25443,-2.37581 0.054,-11.51524 0.39758,-11.85888 0.25773,-0.25773 5.46138,-0.48679 9.0484,-0.47984 z m -10.21372,0.21935 -0.0823,7.40324 -0.0823,7.41695 -1.27501,0.041 c -1.17779,0.0421 -10.42467,-0.52303 -10.52903,-0.64436 -0.30867,-0.35877 -0.51733,-6.55608 -0.31532,-9.41856 l 0.26047,-3.71534 1.59033,-0.24676 c 0.87079,-0.135 3.56972,-0.37112 6.00484,-0.5347 l 4.42824,-0.3016 z m 16.80809,0.12338 2.74194,0.0274 c 4.89464,0.0486 9.13909,0.62225 9.56936,1.30245 0.47766,0.75509 0.55042,11.82947 0.0823,12.53063 -0.19101,0.28606 -2.78673,0.60596 -6.3613,0.78146 l -6.03226,0.28791 0,-7.47177 0,-7.45809 z m 12.40728,14.86131 -0.2605,2.76936 c -0.41779,4.43985 -1.10381,8.34253 -1.53547,8.7742 -0.21984,0.21985 -1.65145,0.59686 -3.19437,0.83629 -1.54292,0.23946 -4.0564,0.55586 -5.57984,0.6992 l -2.76936,0.2605 0.2605,-3.90728 c 0.14503,-2.14556 0.36649,-4.91802 0.49353,-6.16937 l 0.23306,-2.2758 2.27582,-0.23307 c 1.25134,-0.12703 4.03751,-0.3485 6.18306,-0.49354 l 3.89357,-0.26049 z m -40.70409,0.16452 c 0.96462,-0.0178 3.11646,0.0642 5.53871,0.20565 l 5.86776,0.34274 0.2879,3.72903 c 0.16139,2.05098 0.41188,4.8642 0.54837,6.25163 l 0.24679,2.52258 -1.41209,-0.0549 c -0.78051,-0.0258 -2.2155,-0.21306 -3.18065,-0.41127 -0.96516,-0.19822 -2.69547,-0.47843 -3.83871,-0.63066 -1.14326,-0.15223 -2.32611,-0.53012 -2.63227,-0.83628 -0.54683,-0.54683 -2.34272,-10.68149 -1.9605,-11.06373 0.0268,-0.0268 0.21315,-0.0489 0.53469,-0.0549 z m 12.50324,0.76774 7.47178,0 7.47179,0 -0.30162,6.03227 c -0.17549,3.57456 -0.4954,6.1566 -0.78145,6.34759 -0.70118,0.46818 -11.77556,0.39541 -12.53067,-0.0823 -0.68019,-0.43028 -1.25399,-4.66104 -1.3024,-9.55565 l -0.0274,-2.74195 z"
       id="path4772"
       inkscape:export-filename="/home/lucid/Desktop/defisheye.png"
       inkscape:export-xdpi="44.630001"
       inkscape:export-ydpi="44.630001"
       inkscape:connector-curvature="0" />
    <g
       id="g5617"
       transform="matrix(0.43871019,0,0,0.43871019,304.55007,79.426473)"
       inkscape:export-filename="/home/lucid/Desktop/defisheye.png"
       inkscape:export-xdpi="44.630001"
       inkscape:export-ydpi="44.630001">
      <path
         d="m 295,242.36218 c 0,30.37566 -24.62434,55 -55,55 -30.37566,0 -55,-24.62434 -55,-55 0,-30.37566 24.62434,-55 55,-55 30.37566,0 55,24.62434 55,55 z"
         sodipodi:ry="55"
         sodipodi:rx="55"
         sodipodi:cy="242.36218"
         sodipodi:cx="240"
         id="path5573"
         style="fill:url(#radialGradient5621);fill-opacity:1;stroke:none"
         sodipodi:type="arc"
         transform="matrix(1.1593749,0,0,1.1593749,-38.249978,-38.626451)" />
      <path
         inkscape:connector-curvature="0"
         id="path5575"
         d="m 245,207.36218 c -6.83318,0 -13.23272,1.80689 -18.75,5 l 3.75,15 -13.5625,-6.78125 c -5.56297,6.54212 -8.9375,15.02084 -8.9375,24.28125 0,20.71068 16.78932,37.5 37.5,37.5 20.71068,0 37.5,-16.78932 37.5,-37.5 0,-20.71068 -16.78932,-37.5 -37.5,-37.5 z"
         style="fill:url(#radialGradient5623);fill-opacity:1;stroke:none" />
    </g>
    <path
       style="fill:none;stroke:#ff0000;stroke-width:8;stroke-linecap:butt;stroke-linejoin:miter;stroke-miterlimit:4;stroke-opacity:1;stroke-dasharray:none;filter:url(#filter5637)"
       d="M 410,182.36218 500,92.362183"
       id="path5571"
       inkscape:connector-curvature="0"
       inkscape:export-filename="/home/lucid/Desktop/defisheye.png"
       inkscape:export-xdpi="44.630001"
       inkscape:export-ydpi="44.630001"
       transform="matrix(0.43871019,0,0,0.43871019,209.68585,124.61487)" />
    <path
       sodipodi:type="arc"
       style="fill:none;stroke:#ff0000;stroke-width:5.00052309;stroke-miterlimit:4;stroke-opacity:1;stroke-dasharray:none"
       id="path4774-9-8"
       sodipodi:cx="502.5"
       sodipodi:cy="119.86218"
       sodipodi:rx="52.5"
       sodipodi:ry="52.5"
       d="m 555,119.86218 c 0,28.99495 -23.50505,52.5 -52.5,52.5 -28.99495,0 -52.5,-23.50505 -52.5,-52.5 0,-28.994947 23.50505,-52.499997 52.5,-52.499997 28.99495,0 52.5,23.50505 52.5,52.499997 z"
       transform="matrix(0.52639717,0,0,0.52639717,145.32594,122.65812)"
       inkscape:export-filename="/home/lucid/Desktop/defisheye.png"
       inkscape:export-xdpi="44.630001"
       inkscape:export-ydpi="44.630001" />
  </g>
</svg>
